<?xml version="1.0" encoding="utf-8"?>
<!-- Generator: Adobe Illustrator 26.2.1, SVG Export Plug-In . SVG Version: 6.00 Build 0)  -->
<svg version="1.1" xmlns="http://www.w3.org/2000/svg" xmlns:xlink="http://www.w3.org/1999/xlink" x="0px" y="0px"
	 viewBox="0 0 1729.18 595.28" style="enable-background:new 0 0 1729.18 595.28;" xml:space="preserve">
	<style type="text/css">
	.st0{display:none;}
	.st1{display:inline;fill:none;stroke:#000000;stroke-width:0.2049;stroke-miterlimit:10;}
	.st2{display:inline;opacity:0.7;fill:none;stroke:#000000;stroke-width:0.2049;stroke-miterlimit:10;}
	.st3{display:inline;opacity:0.7;fill:none;stroke:#000000;stroke-width:0.1983;stroke-miterlimit:10;}
	.st4{display:inline;opacity:0.7;}
	.st5{fill:none;stroke:#000000;stroke-width:0.2049;stroke-miterlimit:10;}
	.st6{display:inline;opacity:0.7;fill:none;stroke:#000000;stroke-width:0.2051;stroke-miterlimit:10;}
	.st7{fill-rule:evenodd;clip-rule:evenodd;fill:#0047A9;}
	.st8{fill:#0047A9;}
</style>
	<g id="Retícula_copia" class="st0">
		<line class="st1" x1="1431.09" y1="0.14" x2="1431.09" y2="595.07"/>
		<line class="st1" x1="1459.44" y1="0.14" x2="1459.44" y2="595.07"/>
		<line class="st1" x1="1487.78" y1="0.14" x2="1487.78" y2="595.07"/>
		<line class="st1" x1="1516.13" y1="0.14" x2="1516.13" y2="595.07"/>
		<line class="st1" x1="1544.47" y1="0.14" x2="1544.47" y2="595.07"/>
		<line class="st1" x1="1572.82" y1="0.14" x2="1572.82" y2="595.07"/>
		<line class="st1" x1="1601.17" y1="0.14" x2="1601.17" y2="595.07"/>
		<line class="st1" x1="1629.51" y1="0.14" x2="1629.51" y2="595.07"/>
		<line class="st1" x1="1657.86" y1="0.14" x2="1657.86" y2="595.07"/>
		<line class="st1" x1="1686.21" y1="0.14" x2="1686.21" y2="595.07"/>
		<line class="st1" x1="1714.55" y1="0.14" x2="1714.55" y2="595.07"/>
		<line class="st1" x1="1728.78" y1="594.65" x2="1728.78" y2="-0.28"/>
		<line class="st1" x1="1700.38" y1="595.07" x2="1700.38" y2="0.14"/>
		<line class="st1" x1="1672.03" y1="595.07" x2="1672.03" y2="0.14"/>
		<line class="st1" x1="1643.69" y1="595.07" x2="1643.69" y2="0.14"/>
		<line class="st1" x1="1615.34" y1="595.07" x2="1615.34" y2="0.14"/>
		<line class="st1" x1="1586.99" y1="595.07" x2="1586.99" y2="0.14"/>
		<line class="st1" x1="1558.65" y1="595.07" x2="1558.65" y2="0.14"/>
		<line class="st1" x1="1530.3" y1="595.07" x2="1530.3" y2="0.14"/>
		<line class="st1" x1="1501.96" y1="595.07" x2="1501.96" y2="0.14"/>
		<line class="st1" x1="1473.61" y1="595.07" x2="1473.61" y2="0.14"/>
		<line class="st1" x1="1445.26" y1="595.07" x2="1445.26" y2="0.14"/>
		<line class="st1" x1="1416.92" y1="595.07" x2="1416.92" y2="0.14"/>
		<line class="st2" x1="27.97" y1="-0.24" x2="27.97" y2="595.03"/>
		<line class="st2" x1="56.32" y1="-0.24" x2="56.32" y2="595.03"/>
		<line class="st2" x1="84.66" y1="-0.24" x2="84.66" y2="595.03"/>
		<line class="st2" x1="113" y1="-0.24" x2="113" y2="595.03"/>
		<line class="st2" x1="141.34" y1="-0.24" x2="141.34" y2="595.03"/>
		<line class="st2" x1="169.69" y1="-0.24" x2="169.69" y2="595.03"/>
		<line class="st2" x1="198.03" y1="-0.24" x2="198.03" y2="595.03"/>
		<line class="st2" x1="226.37" y1="-0.24" x2="226.37" y2="595.03"/>
		<line class="st2" x1="254.72" y1="-0.24" x2="254.72" y2="595.03"/>
		<line class="st2" x1="283.06" y1="-0.24" x2="283.06" y2="595.03"/>
		<line class="st2" x1="311.4" y1="-0.24" x2="311.4" y2="595.03"/>
		<line class="st2" x1="339.74" y1="-0.24" x2="339.74" y2="595.03"/>
		<line class="st2" x1="368.09" y1="-0.24" x2="368.09" y2="595.03"/>
		<line class="st2" x1="396.43" y1="-0.24" x2="396.43" y2="595.03"/>
		<line class="st2" x1="424.77" y1="-0.24" x2="424.77" y2="595.03"/>
		<line class="st2" x1="453.12" y1="-0.24" x2="453.12" y2="595.03"/>
		<line class="st2" x1="481.46" y1="-0.24" x2="481.46" y2="595.03"/>
		<line class="st2" x1="509.8" y1="-0.24" x2="509.8" y2="595.03"/>
		<line class="st2" x1="538.14" y1="-0.24" x2="538.14" y2="595.03"/>
		<line class="st3" x1="0.02" y1="566.59" x2="1729.15" y2="566.59"/>
		<line class="st3" x1="0.02" y1="538.25" x2="1729.15" y2="538.25"/>
		<line class="st3" x1="0.02" y1="509.92" x2="1729.15" y2="509.92"/>
		<line class="st3" x1="0.02" y1="481.59" x2="1729.15" y2="481.59"/>
		<line class="st3" x1="0.02" y1="453.25" x2="1729.15" y2="453.25"/>
		<line class="st3" x1="0.02" y1="424.92" x2="1729.15" y2="424.92"/>
		<line class="st3" x1="0.02" y1="396.59" x2="1729.15" y2="396.59"/>
		<line class="st3" x1="0.02" y1="368.26" x2="1729.15" y2="368.26"/>
		<line class="st3" x1="0.02" y1="339.92" x2="1729.15" y2="339.92"/>
		<line class="st3" x1="0.02" y1="311.59" x2="1729.15" y2="311.59"/>
		<line class="st3" x1="0.02" y1="283.26" x2="1729.15" y2="283.26"/>
		<line class="st3" x1="0.02" y1="254.93" x2="1729.15" y2="254.93"/>
		<line class="st3" x1="0.02" y1="226.6" x2="1729.15" y2="226.6"/>
		<line class="st3" x1="0.02" y1="198.26" x2="1729.15" y2="198.26"/>
		<line class="st3" x1="0.02" y1="169.93" x2="1729.15" y2="169.93"/>
		<line class="st3" x1="0.02" y1="141.6" x2="1729.15" y2="141.6"/>
		<line class="st3" x1="0.02" y1="113.27" x2="1729.15" y2="113.27"/>
		<line class="st3" x1="0.02" y1="84.93" x2="1729.15" y2="84.93"/>
		<line class="st3" x1="0.02" y1="56.6" x2="1729.15" y2="56.6"/>
		<line class="st3" x1="0.02" y1="552.42" x2="1729.14" y2="552.42"/>
		<line class="st3" x1="0.02" y1="524.09" x2="1729.14" y2="524.09"/>
		<line class="st3" x1="0.02" y1="495.76" x2="1729.14" y2="495.76"/>
		<line class="st3" x1="0.02" y1="467.42" x2="1729.14" y2="467.42"/>
		<line class="st3" x1="0.02" y1="439.09" x2="1729.14" y2="439.09"/>
		<line class="st3" x1="0.02" y1="410.76" x2="1729.14" y2="410.76"/>
		<line class="st3" x1="0.02" y1="382.42" x2="1729.14" y2="382.42"/>
		<line class="st3" x1="0.02" y1="354.09" x2="1729.14" y2="354.09"/>
		<line class="st3" x1="0.02" y1="325.76" x2="1729.14" y2="325.76"/>
		<line class="st3" x1="0.02" y1="297.43" x2="1729.14" y2="297.43"/>
		<line class="st3" x1="0.02" y1="269.09" x2="1729.14" y2="269.09"/>
		<line class="st3" x1="0.02" y1="240.76" x2="1729.14" y2="240.76"/>
		<line class="st3" x1="0.02" y1="212.43" x2="1729.14" y2="212.43"/>
		<line class="st3" x1="0.02" y1="184.1" x2="1729.14" y2="184.1"/>
		<line class="st3" x1="0.02" y1="155.76" x2="1729.14" y2="155.76"/>
		<line class="st3" x1="0.02" y1="127.43" x2="1729.14" y2="127.43"/>
		<line class="st3" x1="0.02" y1="99.1" x2="1729.14" y2="99.1"/>
		<line class="st3" x1="0.02" y1="70.77" x2="1729.14" y2="70.77"/>
		<line class="st3" x1="0.02" y1="580.75" x2="1729.14" y2="580.75"/>
		<g class="st4">
			<g>
				<line class="st5" x1="523.97" y1="595.03" x2="523.97" y2="-0.25"/>
				<line class="st5" x1="495.63" y1="595.03" x2="495.63" y2="-0.25"/>
				<line class="st5" x1="467.29" y1="595.03" x2="467.29" y2="-0.25"/>
				<line class="st5" x1="438.94" y1="595.03" x2="438.94" y2="-0.25"/>
				<line class="st5" x1="410.6" y1="595.03" x2="410.6" y2="-0.25"/>
				<line class="st5" x1="382.26" y1="595.03" x2="382.26" y2="-0.25"/>
				<line class="st5" x1="353.92" y1="595.03" x2="353.92" y2="-0.25"/>
				<line class="st5" x1="325.57" y1="595.03" x2="325.57" y2="-0.25"/>
				<line class="st5" x1="297.23" y1="595.03" x2="297.23" y2="-0.25"/>
				<line class="st5" x1="268.89" y1="595.03" x2="268.89" y2="-0.25"/>
				<line class="st5" x1="240.54" y1="595.03" x2="240.54" y2="-0.25"/>
				<line class="st5" x1="212.2" y1="595.03" x2="212.2" y2="-0.25"/>
				<line class="st5" x1="183.86" y1="595.03" x2="183.86" y2="-0.25"/>
				<line class="st5" x1="155.51" y1="595.03" x2="155.51" y2="-0.25"/>
				<line class="st5" x1="127.17" y1="595.03" x2="127.17" y2="-0.25"/>
				<line class="st5" x1="98.83" y1="595.03" x2="98.83" y2="-0.25"/>
				<line class="st5" x1="70.49" y1="595.03" x2="70.49" y2="-0.25"/>
				<line class="st5" x1="42.14" y1="595.03" x2="42.14" y2="-0.25"/>
				<line class="st5" x1="13.8" y1="595.03" x2="13.8" y2="-0.25"/>
			</g>
			<line class="st5" x1="552.32" y1="595.03" x2="552.32" y2="-0.25"/>
		</g>
		<line class="st2" x1="580.7" y1="-0.25" x2="580.7" y2="595.03"/>
		<line class="st2" x1="609.04" y1="-0.25" x2="609.04" y2="595.03"/>
		<line class="st2" x1="637.38" y1="-0.25" x2="637.38" y2="595.03"/>
		<line class="st6" x1="665.51" y1="0.22" x2="665.51" y2="595.49"/>
		<line class="st6" x1="693.9" y1="0.22" x2="693.9" y2="595.49"/>
		<line class="st6" x1="722.29" y1="0.22" x2="722.29" y2="595.49"/>
		<line class="st6" x1="750.67" y1="0.22" x2="750.67" y2="595.49"/>
		<line class="st6" x1="779.06" y1="0.22" x2="779.06" y2="595.49"/>
		<line class="st6" x1="807.45" y1="0.22" x2="807.45" y2="595.49"/>
		<line class="st6" x1="835.83" y1="0.22" x2="835.83" y2="595.49"/>
		<line class="st6" x1="864.22" y1="0.22" x2="864.22" y2="595.49"/>
		<line class="st6" x1="892.61" y1="0.22" x2="892.61" y2="595.49"/>
		<line class="st6" x1="920.99" y1="0.22" x2="920.99" y2="595.49"/>
		<line class="st6" x1="949.38" y1="0.22" x2="949.38" y2="595.49"/>
		<line class="st6" x1="977.77" y1="0.22" x2="977.77" y2="595.49"/>
		<line class="st2" x1="1005.89" y1="-0.25" x2="1005.89" y2="595.03"/>
		<line class="st2" x1="1034.23" y1="-0.25" x2="1034.23" y2="595.03"/>
		<line class="st2" x1="1062.57" y1="-0.25" x2="1062.57" y2="595.03"/>
		<line class="st2" x1="1090.92" y1="-0.25" x2="1090.92" y2="595.03"/>
		<g class="st4">
			<g>
				<line class="st5" x1="1076.75" y1="595.03" x2="1076.75" y2="-0.25"/>
				<line class="st5" x1="1048.4" y1="595.03" x2="1048.4" y2="-0.25"/>
				<line class="st5" x1="1020.06" y1="595.03" x2="1020.06" y2="-0.25"/>
				<line class="st5" x1="991.72" y1="595.03" x2="991.72" y2="-0.25"/>
				<line class="st5" x1="963.38" y1="595.03" x2="963.38" y2="-0.25"/>
				<line class="st5" x1="935.03" y1="595.03" x2="935.03" y2="-0.25"/>
				<line class="st5" x1="906.69" y1="595.03" x2="906.69" y2="-0.25"/>
				<line class="st5" x1="878.35" y1="595.03" x2="878.35" y2="-0.25"/>
				<line class="st5" x1="850" y1="595.03" x2="850" y2="-0.25"/>
				<line class="st5" x1="821.66" y1="595.03" x2="821.66" y2="-0.25"/>
				<line class="st5" x1="793.32" y1="595.03" x2="793.31" y2="-0.25"/>
				<line class="st5" x1="764.97" y1="595.03" x2="764.97" y2="-0.25"/>
				<line class="st5" x1="736.63" y1="595.03" x2="736.63" y2="-0.25"/>
				<line class="st5" x1="708.29" y1="595.03" x2="708.29" y2="-0.25"/>
				<line class="st5" x1="679.94" y1="595.03" x2="679.94" y2="-0.25"/>
				<line class="st5" x1="651.6" y1="595.03" x2="651.6" y2="-0.25"/>
				<line class="st5" x1="623.26" y1="595.03" x2="623.26" y2="-0.25"/>
				<line class="st5" x1="594.92" y1="595.03" x2="594.92" y2="-0.25"/>
				<line class="st5" x1="566.57" y1="595.03" x2="566.57" y2="-0.25"/>
			</g>
			<line class="st5" x1="1105.09" y1="595.03" x2="1105.09" y2="-0.25"/>
		</g>
		<line class="st2" x1="1331.83" y1="595.03" x2="1331.83" y2="-0.25"/>
		<line class="st2" x1="1303.49" y1="595.03" x2="1303.49" y2="-0.25"/>
		<line class="st2" x1="1275.15" y1="595.03" x2="1275.15" y2="-0.25"/>
		<line class="st2" x1="1246.8" y1="595.03" x2="1246.8" y2="-0.25"/>
		<line class="st2" x1="1218.46" y1="595.03" x2="1218.46" y2="-0.25"/>
		<line class="st2" x1="1190.12" y1="595.03" x2="1190.12" y2="-0.25"/>
		<line class="st2" x1="1161.77" y1="595.03" x2="1161.77" y2="-0.25"/>
		<line class="st2" x1="1133.43" y1="595.03" x2="1133.43" y2="-0.25"/>
		<line class="st2" x1="1402.74" y1="595.07" x2="1402.74" y2="0.14"/>
		<line class="st2" x1="1374.34" y1="595.03" x2="1374.34" y2="-0.25"/>
		<line class="st2" x1="1346" y1="595.03" x2="1346" y2="-0.25"/>
		<line class="st2" x1="1317.66" y1="595.03" x2="1317.66" y2="-0.25"/>
		<line class="st2" x1="1289.32" y1="595.03" x2="1289.32" y2="-0.25"/>
		<line class="st2" x1="1260.97" y1="595.03" x2="1260.97" y2="-0.25"/>
		<line class="st2" x1="1232.63" y1="595.03" x2="1232.63" y2="-0.25"/>
		<line class="st2" x1="1204.29" y1="595.03" x2="1204.29" y2="-0.25"/>
		<line class="st2" x1="1175.94" y1="595.03" x2="1175.94" y2="-0.25"/>
		<line class="st2" x1="1147.6" y1="595.03" x2="1147.6" y2="-0.25"/>
		<line class="st2" x1="1119.26" y1="595.03" x2="1119.26" y2="-0.25"/>
		<line class="st2" x1="1360.17" y1="595.03" x2="1360.17" y2="-0.25"/>
		<line class="st2" x1="1388.57" y1="595.07" x2="1388.57" y2="0.14"/>
		<line class="st3" x1="0.02" y1="42.41" x2="1729.15" y2="42.41"/>
		<line class="st3" x1="0.02" y1="14.08" x2="1729.15" y2="14.08"/>
		<line class="st3" x1="0.02" y1="28.25" x2="1729.15" y2="28.25"/>
		<line class="st3" x1="0.02" y1="-0.09" x2="1729.15" y2="-0.09"/>
	</g>
	<g id="SIMBOLO">
</g>
	<g id="TEXTO">
		<g>
			<g>
				<g>
					<g>
						<path class="st7" d="M283.06,467.95c0,38.97,0,66.38,0,66.38"/>
						<path class="st8" d="M283.06,538.39c-2.24,0-4.05-1.81-4.05-4.05v-66.38c0-2.24,1.81-4.05,4.05-4.05s4.05,1.81,4.05,4.05v66.38
						C287.11,536.58,285.29,538.39,283.06,538.39z"/>
					</g>
					<g>
						<path class="st7" d="M283.06,206.47c0,0,0,31.61,0,75.2"/>
						<path class="st8" d="M283.06,285.72c-2.24,0-4.05-1.81-4.05-4.05v-75.2c0-2.24,1.81-4.05,4.05-4.05s4.05,1.81,4.05,4.05v75.2
						C287.11,283.91,285.29,285.72,283.06,285.72z"/>
					</g>
				</g>
				<g>
					<g>
						<path class="st8" d="M420.33,320.43c-2.25,0-4.07-1.82-4.07-4.07v-33.63c-14.62-1.06-22.93-9.57-22.93-23.73v-7.98
						c-7.01-1.93-15.55-4.37-21.92-6.42c-11.41-3.69-18.29-13.33-18.51-25.86c-13.39-4.96-24.63-9.12-28.69-10.59
						c-9.42-3.41-14.61-10.68-14.61-20.47c0-2.25,1.82-4.07,4.07-4.07s4.07,1.82,4.07,4.07c0,6.38,3.02,10.57,9.23,12.81
						c3.95,1.43,14.61,5.37,27.43,10.12c3.77-8.71,13.97-13.34,23.69-13.34c15.13,0,23.38,14.08,23.38,21.31v9.49
						c9.36,3.47,16.32,6.04,18.26,6.73c10.13,3.61,20.96,11.9,20.96,24.34c0,9.65-6.48,20.25-16.29,23v34.2
						C424.4,318.6,422.58,320.43,420.33,320.43z M401.47,253.23v5.76c0,3.64,0,14.24,14.78,15.56v-0.69
						c0-14.79-6.93-18.53-12.96-20.14C402.75,253.58,402.14,253.41,401.47,253.23z M401.47,244.8c1.65,0.45,2.99,0.81,3.91,1.05
						c12.48,3.33,18.88,12.59,19.01,27.53c4.83-2.63,8.14-8.77,8.14-14.23c0-10.82-13.95-16.1-15.54-16.67
						c-1.77-0.63-7.57-2.77-15.53-5.72V244.8z M361.31,221.86c1.11,7.34,5.56,12.71,12.6,14.98c5.56,1.8,13.01,3.94,19.41,5.72
						v-8.82c-6.08-2.26-12.85-4.77-19.75-7.33C369.48,224.89,365.35,223.36,361.31,221.86z M362.11,213.46
						c4.68,1.74,9.51,3.53,14.31,5.31c5.84,2.17,11.59,4.3,16.91,6.28v-6.47c0-3.38-5.24-13.16-15.23-13.16
						C371.55,205.42,364.69,208.21,362.11,213.46z"/>
					</g>
				</g>
				<g>
					<g>
						<path class="st8" d="M145.78,320.43c-2.25,0-4.07-1.82-4.07-4.07v-34.2c-9.81-2.75-16.29-13.35-16.29-23
						c0-12.45,10.83-20.74,20.96-24.34c1.94-0.69,8.9-3.26,18.27-6.73v-9.49c0-7.23,8.25-21.31,23.38-21.31
						c9.71,0,19.91,4.63,23.68,13.34c12.8-4.75,23.48-8.7,27.43-10.12c6.21-2.25,9.23-6.44,9.23-12.81c0-2.25,1.82-4.07,4.07-4.07
						s4.07,1.82,4.07,4.07c0,9.8-5.19,17.07-14.6,20.47c-4.06,1.47-15.32,5.63-28.69,10.59c-0.21,12.53-7.1,22.17-18.5,25.86
						c-6.35,2.05-14.9,4.49-21.92,6.42v7.98c0,14.16-8.31,22.67-22.94,23.73v33.63C149.86,318.6,148.03,320.43,145.78,320.43z
						 M164.64,253.23c-0.67,0.18-1.28,0.34-1.82,0.48c-6.04,1.61-12.97,5.35-12.97,20.14v0.7c14.79-1.31,14.79-11.92,14.79-15.56
						V253.23z M164.64,236.76c-7.96,2.95-13.76,5.09-15.53,5.72c-1.59,0.57-15.54,5.85-15.54,16.67c0,5.46,3.31,11.6,8.14,14.23
						c0.13-14.94,6.53-24.2,19.02-27.53c1.06-0.28,2.39-0.64,3.91-1.05V236.76z M172.79,233.74v8.83c6.46-1.8,13.83-3.92,19.41-5.72
						c7.03-2.28,11.49-7.64,12.59-14.98c-3.87,1.44-7.82,2.9-11.75,4.36C185.96,228.85,179.01,231.43,172.79,233.74z M188.02,205.42
						c-10,0-15.23,9.78-15.23,13.16v6.47c5.47-2.03,11.39-4.23,17.42-6.47c4.62-1.72,9.28-3.44,13.79-5.12
						C201.42,208.21,194.56,205.42,188.02,205.42z"/>
					</g>
				</g>
				<g>
					<g>
						<line class="st7" x1="263.15" y1="222.62" x2="302.97" y2="222.62"/>
						<path class="st8" d="M302.97,226.69h-39.82c-2.25,0-4.07-1.82-4.07-4.07s1.82-4.07,4.07-4.07h39.82c2.25,0,4.07,1.82,4.07,4.07
						S305.22,226.69,302.97,226.69z"/>
					</g>
				</g>
				<g>
					<g>
						<line class="st7" x1="257.72" y1="240.64" x2="308.4" y2="240.64"/>
						<path class="st8" d="M308.4,244.71h-50.68c-2.25,0-4.07-1.82-4.07-4.07s1.82-4.07,4.07-4.07h50.68c2.25,0,4.07,1.82,4.07,4.07
						S310.65,244.71,308.4,244.71z"/>
					</g>
				</g>
				<g>
					<path class="st7" d="M328.69,142.13c0.68,0.74,2.41-0.22,3.7-1.71c1.28-1.49,5.58-6.09,7.16-7.65c1.58-1.56,5.51-2.38,8.14-4.09
					c2.64-1.71,7.02-5.35,7.02-10.25c0-4.9-0.98-5.42,1.51-9.06c2.49-3.64,7.01-8.69,11.17-11.07c4.15-2.38,10.71-3.42,14.78,1.63
					c4.07,5.05,4,12.33,0,18.43c-4,6.09-11.99,13.75-17.05,18.2c-5.05,4.46-7.92,8.99-7.92,18.35c0,9.36,4.45,18.13,13.43,20.88
					c8.97,2.75,12.67,2.82,12.67,7.06c0,4.23-3.24,10.92-8.07,14.12c-3.32,1.63-5.13,3.94-5.13,3.94l12.97-1.19
					c0.83-3.12,1.66-6.61,3.32-8.92c1.66-2.3,6.11-7.5,9.8-4.53c3.7,2.97,7.47,7.43,4.6,10.48c-2.87,3.05-8.97,7.5-8.97,7.5
					l4.37,5.42c0,0,6.41-6.09,8.15-7.65c1.73-1.56,7.77-5.94,12.37-2.3c4.6,3.64,30.17,30.31,58.68,18.72
					c-7.3-3.08-14.64-7.88-22.94-16.94c1.05-1.49,2.26-2.53,2.26-2.53c7.54,3.27,19.47,7.43,30.03,3.71
					c-15.24-8.62-16.17-10.54-24.9-20.5c-10.41-11.89-17.34-31.45-32.28-42.94c-15.84-12.19-29.11-11.74-41.93-3.86
					c4.83-7.28,9.81-14.86,11.46-21.69c1.66-6.83,1.05-19.02-8.45-25.11c-9.5-6.09-21.87-3.42-28.82,1.64
					c-6.94,5.05-12.67,13.08-14.78,15.3c-2.11,2.23-6.79,3.87-9.35,8.77c-2.56,4.9-2.56,8.92-2.87,12.93
					c-0.3,4.01-1.76,8.25-3.02,10.25C327.63,140.94,328.69,142.13,328.69,142.13z"/>
				</g>
				<g>
					<path class="st8" d="M362.16,510.34c-3.54,0-4.75-4.16-4.15-6.39c0.6-2.23,4.83-14.12,5.81-17.02c0.98-2.89,2.79-2.91,3.92-2.91
					c1.13,0,2.96,0.01,3.94,2.91c0.98,2.9,5.2,14.79,5.81,17.02c0.6,2.23-0.6,6.39-4.15,6.39H362.16z"/>
					<path class="st8" d="M388.11,510.34c-3.55,0-4.75-4.16-4.15-6.39c0.6-2.23,4.83-14.12,5.81-17.02c0.98-2.89,2.79-2.91,3.92-2.91
					c1.13,0,2.96,0.01,3.94,2.91c0.98,2.9,5.2,14.79,5.81,17.02c0.6,2.23-0.6,6.39-4.15,6.39H388.11z"/>
					<path class="st8" d="M414.06,510.34c-3.54,0-4.75-4.16-4.15-6.39c0.6-2.23,4.83-14.12,5.81-17.02c0.98-2.89,2.78-2.91,3.91-2.91
					c1.13,0,2.96,0.01,3.94,2.91c0.98,2.9,5.2,14.79,5.81,17.02c0.6,2.23-0.6,6.39-4.15,6.39H414.06z"/>
					<path class="st8" d="M440,510.34c-3.55,0-4.75-4.16-4.15-6.39c0.6-2.23,4.83-14.12,5.81-17.02c0.98-2.89,2.78-2.91,3.91-2.91
					c1.13,0,2.96,0.01,3.94,2.91c0.98,2.9,5.2,14.79,5.81,17.02c0.6,2.23-0.6,6.39-4.15,6.39H440z"/>
					<path class="st8" d="M465.95,510.34c-3.55,0-4.75-4.16-4.15-6.39c0.6-2.23,4.83-14.12,5.81-17.02c0.98-2.89,2.78-2.91,3.91-2.91
					c1.13,0,2.97,0.01,3.95,2.91c0.98,2.9,5.2,14.79,5.81,17.02c0.6,2.23-0.6,6.39-4.15,6.39H465.95z"/>
					<path class="st8" d="M375.13,472.15c-3.54,0-4.75-4.16-4.15-6.39c0.6-2.23,4.83-14.12,5.81-17.01c0.98-2.9,2.79-2.91,3.92-2.91
					c1.13,0,2.96,0.01,3.94,2.91c0.98,2.9,5.2,14.79,5.81,17.01c0.6,2.23-0.6,6.39-4.15,6.39H375.13z"/>
					<path class="st8" d="M401.09,472.15c-3.54,0-4.75-4.16-4.15-6.39c0.6-2.23,4.83-14.12,5.81-17.01c0.98-2.9,2.78-2.91,3.91-2.91
					c1.13,0,2.96,0.01,3.94,2.91c0.98,2.9,5.2,14.79,5.81,17.01c0.6,2.23-0.6,6.39-4.15,6.39H401.09z"/>
					<path class="st8" d="M427.03,472.15c-3.55,0-4.75-4.16-4.15-6.39c0.6-2.23,4.83-14.12,5.81-17.01c0.98-2.9,2.78-2.91,3.91-2.91
					c1.13,0,2.96,0.01,3.94,2.91c0.98,2.9,5.2,14.79,5.81,17.01c0.6,2.23-0.6,6.39-4.15,6.39H427.03z"/>
					<path class="st8" d="M452.97,472.15c-3.54,0-4.75-4.16-4.15-6.39c0.6-2.23,4.83-14.12,5.81-17.01c0.98-2.9,2.78-2.91,3.91-2.91
					c1.13,0,2.96,0.01,3.94,2.91c0.98,2.9,5.2,14.79,5.81,17.01c0.6,2.23-0.6,6.39-4.15,6.39H452.97z"/>
					<g>
						<path class="st7" d="M388.11,433.96c-3.55,0-4.75-4.16-4.15-6.39c0.6-2.23,4.83-14.11,5.81-17.01c0.98-2.9,2.79-2.91,3.92-2.91
						c1.13,0,2.96,0.01,3.94,2.91c0.98,2.9,5.2,14.78,5.81,17.01c0.6,2.23-0.6,6.39-4.15,6.39
						C395.74,433.96,391.65,433.96,388.11,433.96z"/>
					</g>
					<g>
						<path class="st7" d="M414.06,433.96c-3.54,0-4.75-4.16-4.15-6.39c0.6-2.23,4.83-14.11,5.81-17.01c0.98-2.9,2.78-2.91,3.91-2.91
						c1.13,0,2.96,0.01,3.94,2.91c0.98,2.9,5.2,14.78,5.81,17.01c0.6,2.23-0.6,6.39-4.15,6.39
						C421.68,433.96,417.6,433.96,414.06,433.96z"/>
					</g>
					<g>
						<path class="st7" d="M440,433.96c-3.55,0-4.75-4.16-4.15-6.39c0.6-2.23,4.83-14.11,5.81-17.01c0.98-2.9,2.78-2.91,3.91-2.91
						c1.13,0,2.96,0.01,3.94,2.91c0.98,2.9,5.2,14.78,5.81,17.01c0.6,2.23-0.6,6.39-4.15,6.39
						C447.63,433.96,443.55,433.96,440,433.96z"/>
					</g>
					<path class="st8" d="M401.09,395.78c-3.54,0-4.75-4.16-4.15-6.39c0.6-2.23,4.83-14.12,5.81-17.01c0.98-2.9,2.78-2.91,3.91-2.91
					c1.13,0,2.96,0.01,3.94,2.91c0.98,2.9,5.2,14.78,5.81,17.01c0.6,2.23-0.6,6.39-4.15,6.39H401.09z"/>
					<path class="st8" d="M427.03,395.78c-3.55,0-4.75-4.16-4.15-6.39c0.6-2.23,4.83-14.12,5.81-17.01c0.98-2.9,2.78-2.91,3.91-2.91
					c1.13,0,2.96,0.01,3.94,2.91c0.98,2.9,5.2,14.78,5.81,17.01c0.6,2.23-0.6,6.39-4.15,6.39H427.03z"/>
					<g>
						<path class="st7" d="M414.06,357.59c-3.54,0-4.75-4.16-4.15-6.39c0.6-2.23,4.83-14.12,5.81-17.01c0.98-2.9,2.78-2.91,3.91-2.91
						c1.13,0,2.96,0.01,3.94,2.91c0.98,2.9,5.2,14.78,5.81,17.01c0.6,2.23-0.6,6.39-4.15,6.39
						C421.68,357.59,417.6,357.59,414.06,357.59z"/>
					</g>
				</g>
				<g>
					<path class="st7" d="M237.42,142.13c-0.68,0.74-2.41-0.22-3.69-1.71c-1.28-1.49-5.58-6.09-7.16-7.65
					c-1.58-1.56-5.51-2.38-8.15-4.09c-2.64-1.71-7.01-5.35-7.01-10.25c0-4.9,0.98-5.42-1.51-9.06c-2.49-3.64-7.01-8.69-11.16-11.07
					c-4.15-2.38-10.71-3.42-14.78,1.63c-4.07,5.05-4,12.33,0,18.43c4,6.09,11.99,13.75,17.04,18.2c5.05,4.46,7.92,8.99,7.92,18.35
					c0,9.36-4.45,18.13-13.42,20.88c-8.97,2.75-12.67,2.82-12.67,7.06c0,4.23,3.24,10.92,8.07,14.12c3.32,1.63,5.13,3.94,5.13,3.94
					l-12.97-1.19c-0.83-3.12-1.66-6.61-3.32-8.92c-1.66-2.3-6.11-7.5-9.8-4.53c-3.7,2.97-7.46,7.43-4.6,10.48
					c2.87,3.05,8.98,7.5,8.98,7.5l-4.38,5.42c0,0-6.41-6.09-8.14-7.65c-1.74-1.56-7.77-5.94-12.37-2.3
					c-4.61,3.64-30.18,30.31-58.68,18.72c7.29-3.08,14.63-7.88,22.93-16.94c-1.06-1.49-2.26-2.53-2.26-2.53
					c-7.54,3.27-19.46,7.43-30.01,3.71c15.23-8.62,16.16-10.54,24.89-20.5c10.41-11.89,17.35-31.45,32.28-42.94
					c15.85-12.19,29.12-11.74,41.94-3.86c-4.83-7.28-9.8-14.86-11.46-21.69c-1.66-6.83-1.06-19.02,8.45-25.11
					c9.5-6.09,21.87-3.42,28.81,1.64c6.94,5.05,12.67,13.08,14.78,15.3c2.11,2.23,6.79,3.87,9.35,8.77
					c2.56,4.9,2.56,8.92,2.87,12.93c0.3,4.01,1.77,8.25,3.02,10.25C238.48,140.94,237.42,142.13,237.42,142.13z"/>
				</g>
				<g>
					<path class="st8" d="M203.95,510.34h-11.17c-3.54,0-4.75-4.16-4.15-6.39c0.6-2.23,4.83-14.12,5.81-17.02
					c0.98-2.89,2.81-2.91,3.94-2.91c1.13,0,2.93,0.01,3.91,2.91c0.98,2.9,5.2,14.79,5.81,17.02
					C208.7,506.18,207.49,510.34,203.95,510.34z"/>
					<path class="st8" d="M178,510.34h-11.17c-3.54,0-4.75-4.16-4.15-6.39c0.6-2.23,4.83-14.12,5.81-17.02
					c0.98-2.89,2.81-2.91,3.94-2.91c1.13,0,2.93,0.01,3.91,2.91c0.98,2.9,5.2,14.79,5.81,17.02
					C182.75,506.18,181.55,510.34,178,510.34z"/>
					<path class="st8" d="M152.06,510.34h-11.18c-3.54,0-4.75-4.16-4.15-6.39c0.6-2.23,4.83-14.12,5.81-17.02
					c0.98-2.89,2.82-2.91,3.95-2.91c1.13,0,2.93,0.01,3.91,2.91c0.98,2.9,5.2,14.79,5.81,17.02
					C156.81,506.18,155.6,510.34,152.06,510.34z"/>
					<path class="st8" d="M126.12,510.34h-11.18c-3.55,0-4.75-4.16-4.15-6.39c0.6-2.23,4.83-14.12,5.81-17.02
					c0.98-2.89,2.81-2.91,3.94-2.91c1.13,0,2.94,0.01,3.92,2.91c0.98,2.9,5.21,14.79,5.81,17.02
					C130.87,506.18,129.66,510.34,126.12,510.34z"/>
					<path class="st8" d="M100.16,510.34H88.99c-3.54,0-4.75-4.16-4.15-6.39c0.6-2.23,4.83-14.12,5.81-17.02
					c0.98-2.89,2.81-2.91,3.94-2.91c1.13,0,2.93,0.01,3.91,2.91c0.98,2.9,5.2,14.79,5.81,17.02
					C104.92,506.18,103.71,510.34,100.16,510.34z"/>
					<path class="st8" d="M190.97,472.15H179.8c-3.54,0-4.75-4.16-4.15-6.39c0.6-2.23,4.83-14.12,5.81-17.01
					c0.98-2.9,2.81-2.91,3.94-2.91c1.13,0,2.93,0.01,3.91,2.91c0.98,2.9,5.2,14.79,5.81,17.01
					C195.73,467.99,194.52,472.15,190.97,472.15z"/>
					<path class="st8" d="M165.03,472.15h-11.17c-3.54,0-4.75-4.16-4.15-6.39c0.6-2.23,4.83-14.12,5.81-17.01
					c0.98-2.9,2.81-2.91,3.94-2.91c1.13,0,2.93,0.01,3.91,2.91c0.98,2.9,5.2,14.79,5.81,17.01
					C169.78,467.99,168.58,472.15,165.03,472.15z"/>
					<path class="st8" d="M139.09,472.15h-11.18c-3.54,0-4.75-4.16-4.15-6.39c0.6-2.23,4.83-14.12,5.81-17.01
					c0.98-2.9,2.82-2.91,3.95-2.91c1.13,0,2.93,0.01,3.91,2.91c0.98,2.9,5.2,14.79,5.81,17.01
					C143.84,467.99,142.63,472.15,139.09,472.15z"/>
					<path class="st8" d="M113.14,472.15h-11.17c-3.54,0-4.75-4.16-4.15-6.39c0.6-2.23,4.83-14.12,5.81-17.01
					c0.98-2.9,2.81-2.91,3.94-2.91c1.13,0,2.93,0.01,3.91,2.91c0.98,2.9,5.2,14.79,5.81,17.01
					C117.89,467.99,116.68,472.15,113.14,472.15z"/>
					<path class="st7" d="M178,433.96c3.54,0,4.75-4.16,4.15-6.39c-0.6-2.23-4.83-14.11-5.81-17.01c-0.98-2.9-2.78-2.91-3.91-2.91
					c-1.13,0-2.96,0.01-3.94,2.91c-0.98,2.9-5.2,14.78-5.81,17.01c-0.6,2.23,0.6,6.39,4.15,6.39
					C170.38,433.96,174.46,433.96,178,433.96z"/>
					<path class="st7" d="M152.06,433.96c3.54,0,4.75-4.16,4.15-6.39c-0.6-2.23-4.83-14.11-5.81-17.01c-0.98-2.9-2.78-2.91-3.91-2.91
					c-1.13,0-2.97,0.01-3.95,2.91c-0.98,2.9-5.2,14.78-5.81,17.01c-0.6,2.23,0.6,6.39,4.15,6.39
					C144.42,433.96,148.52,433.96,152.06,433.96z"/>
					<path class="st7" d="M126.12,433.96c3.54,0,4.75-4.16,4.15-6.39c-0.6-2.23-4.83-14.11-5.81-17.01c-0.98-2.9-2.79-2.91-3.92-2.91
					c-1.13,0-2.96,0.01-3.94,2.91c-0.98,2.9-5.21,14.78-5.81,17.01c-0.6,2.23,0.6,6.39,4.15,6.39
					C118.48,433.96,122.57,433.96,126.12,433.96z"/>
					<path class="st8" d="M165.03,395.78h-11.17c-3.54,0-4.75-4.16-4.15-6.39c0.6-2.23,4.83-14.12,5.81-17.01
					c0.98-2.9,2.81-2.91,3.94-2.91c1.13,0,2.93,0.01,3.91,2.91c0.98,2.9,5.2,14.78,5.81,17.01
					C169.78,391.61,168.58,395.78,165.03,395.78z"/>
					<path class="st8" d="M139.09,395.78h-11.18c-3.54,0-4.75-4.16-4.15-6.39c0.6-2.23,4.83-14.12,5.81-17.01
					c0.98-2.9,2.82-2.91,3.95-2.91c1.13,0,2.93,0.01,3.91,2.91c0.98,2.9,5.2,14.78,5.81,17.01
					C143.84,391.61,142.63,395.78,139.09,395.78z"/>
					<path class="st7" d="M152.06,357.59c3.54,0,4.75-4.16,4.15-6.39c-0.6-2.23-4.83-14.12-5.81-17.01c-0.98-2.9-2.78-2.91-3.91-2.91
					c-1.13,0-2.97,0.01-3.95,2.91c-0.98,2.9-5.2,14.78-5.81,17.01c-0.6,2.23,0.6,6.39,4.15,6.39
					C144.42,357.59,148.52,357.59,152.06,357.59z"/>
				</g>
				<g>
					<g>
						<path class="st7" d="M367.71,384.86c-4.86-98.96-62.2-124.52-84.65-124.52c-22.45,0-79.8,25.56-84.65,124.52
						c-1.02,20.95,0.29,32.42,0.29,35.1c10.02,7.4,39.17,31.47,41.9,90.31h84.91c2.73-58.84,31.87-82.91,41.9-90.31
						C367.41,417.28,368.73,405.81,367.71,384.86z M283.06,461.24c-31,0-56.13-38.99-56.13-87.08c0-48.09,25.13-87.08,56.13-87.08
						c31,0,56.12,38.99,56.12,87.08C339.18,422.25,314.06,461.24,283.06,461.24z"/>
					</g>
				</g>
				<g>
					<path class="st7" d="M283.06,171.01c4.07,0,17.06,1.02,23.76,3.34c2.56,0.89,1.58,2.38,0.75,3.05
					c-0.83,0.67-1.43,1.34-5.28,0.37c-3.85-0.97-11.84-2.08-19.23-2.08s-15.38,1.12-19.23,2.08c-3.85,0.96-4.45,0.3-5.28-0.37
					c-0.83-0.67-1.82-2.15,0.75-3.05C265.99,172.03,278.98,171.01,283.06,171.01z M283.13,164.84c16.52,0,65.31,1.19,65.31,14.04
					c0,12.85-50.6,14.41-65.39,14.41c-14.78,0-65.4-1.56-65.4-14.41C217.66,166.03,266.62,164.84,283.13,164.84z M283.06,160.46
					c3.32,0,17.2,0,26.25,1.12c0-7.8-6.86-20.8-26.25-20.8c-19.38,0-26.26,13-26.26,20.8C265.86,160.46,279.74,160.46,283.06,160.46
					z M250.02,161.95c-1.51,1.19-3.09,1.86-4.98,0.15c-1.89-1.71-3.17-3.71-4-4.68c-0.83-0.96-0.9-2.97,1.06-4.46
					c1.96-1.49,3.62-2.6,5.43-0.52c1.68,1.93,3.02,3.38,3.92,4.62C253.03,159.27,251.52,160.76,250.02,161.95z M316.09,161.95
					c1.51,1.19,3.09,1.86,4.98,0.15c1.88-1.71,3.17-3.71,4-4.68c0.83-0.96,0.91-2.97-1.05-4.46c-1.96-1.49-3.62-2.6-5.43-0.52
					c-1.68,1.93-3.02,3.38-3.91,4.62C313.08,159.27,314.58,160.76,316.09,161.95z"/>
				</g>
				<g>
					<path class="st8" d="M236.45,391.21c1.45,11.53,4.45,21.78,8.5,30.48h22.42v-30.48H236.45z"/>
					<path class="st8" d="M267.36,448.57c5.09,3.03,10.42,4.72,15.7,4.72c5.27,0,10.59-1.68,15.68-4.71v-26.89h-31.38V448.57z"/>
					<path class="st8" d="M321.17,421.69c4.04-8.71,7.04-18.96,8.48-30.48h-30.92v30.48H321.17z"/>
					<path class="st8" d="M245.24,328.48c-4.13,8.69-7.22,18.92-8.73,30.48h30.85v-30.48H245.24z"/>
					<rect x="267.36" y="358.97" class="st8" width="31.38" height="32.24"/>
					<path class="st8" d="M329.6,358.97c-1.51-11.56-4.6-21.8-8.72-30.48h-22.14v30.48H329.6z"/>
					<path class="st8" d="M298.74,302.18c-5.09-3.02-10.41-4.7-15.68-4.7c-5.28,0-10.61,1.68-15.7,4.71v26.29h31.38V302.18z"/>
				</g>
			</g>
			<g>
				<path class="st8" d="M724.17,129.46l-19.38,2.04v84.92c0,17.85-5.7,31.54-17.09,41.05c-10.2,8.67-23.63,13.01-40.29,13.01
				c-15.64,0-29.07-4.16-40.29-12.5c-12.24-9.18-18.36-21.17-18.36-35.96V131.5l-21.93-2.04v-8.42l30.09,0.77l34.17-0.77v8.42
				l-21.93,2.04v84.15c0,13.94,4.16,24.57,12.5,31.88c7.48,6.63,17.25,9.94,29.33,9.94c12.24,0,22.1-3.4,29.58-10.2
				c8.33-7.48,12.5-18.1,12.5-31.88v-83.9l-20.91-2.04v-8.42h27.03h24.99V129.46z"/>
				<path class="st8" d="M844.62,268.18l-28.05-1.02l-25.25,1.02v-7.9l16.58-2.04c1.36-11.73,2.04-21.93,2.04-30.6
				c0-23.46-1.53-36.63-4.59-39.52c-2.21-2.21-6.63-3.23-13.26-3.06c-7.31,0.17-12.58,0.85-15.81,2.04
				c-2.89,2.21-7.14,5.78-12.75,10.71v60.44l16.58,2.04v7.9l-24.48-1.02l-29.07,1.02v-7.9l19.64-2.04v-72.67l-21.93,1.02v-7.91
				c6.46-0.85,12.92-1.7,19.38-2.55c9.35-1.19,15.56-2.55,18.62-4.08l1.28,14.54c10.88-9.18,21.33-13.77,31.37-13.77
				c19.55,0,30,8.16,31.37,24.48c1.7,21.08,1.36,41.4-1.02,60.94l19.38,2.04V268.18z"/>
				<path class="st8" d="M909.72,268.18l-28.31-1.02l-28.31,1.02v-7.9l19.89-2.04v-72.42l-21.93,1.02v-7.91
				c6.8-0.85,13.6-1.7,20.4-2.55c11.05-1.53,17.34-2.89,18.87-4.08v85.94l19.38,2.04V268.18z M891.36,136.34
				c0,3.06-1.24,5.91-3.7,8.54c-2.47,2.64-5.23,3.95-8.29,3.95c-2.89,0-5.53-1.31-7.91-3.95c-2.38-2.63-3.57-5.48-3.57-8.54
				c0-2.89,1.19-5.61,3.57-8.16c2.38-2.55,5.01-3.83,7.91-3.83c3.06,0,5.82,1.27,8.29,3.83
				C890.12,130.73,891.36,133.45,891.36,136.34z"/>
				<path class="st8" d="M1000.73,182.24l-11.22,1.53l-32.9,86.44h-5.36l-35.19-86.44l-11.48-1.53v-7.65l18.36,0.77l25.5-0.77v7.65
				l-14.03,1.53l23.46,58.65l21.93-58.65l-13.77-1.53v-7.65h18.87h15.81V182.24z"/>
				<path class="st8" d="M1082.65,256.19c-10.2,9.18-22.27,13.77-36.21,13.77c-12.58,0-22.95-4.07-31.11-12.21
				c-9.01-8.65-13.52-20.34-13.52-35.1c0-14.92,4.5-27.04,13.52-36.37c8.33-8.65,18.53-12.97,30.6-12.97
				c23.12,0,34.68,10.46,34.68,31.37c0,3.23-0.09,5.78-0.25,7.65h-58.4c-0.34,1.35-0.51,4.48-0.51,9.38
				c0,9.81,2.72,18.17,8.16,25.11c5.61,7.61,12.92,11.41,21.93,11.41c9.35,0,18.11-2.89,26.27-8.67L1082.65,256.19z M1062.75,200.9
				c0.34-1.99,0.51-3.73,0.51-5.22c0-8.96-5.7-13.44-17.09-13.44c-6.97,0-11.31,0.58-13.01,1.74c-0.85,0.67-2.42,3.2-4.72,7.59
				c-2.29,4.4-3.87,8.09-4.72,11.08c4.93,0.17,8.16,0.25,9.69,0.25C1049.41,202.9,1059.18,202.23,1062.75,200.9z"/>
				<path class="st8" d="M1170.5,186.96c0,2.69-2.04,6.57-6.12,11.61l-10.46,1.01c0-6.29-0.25-9.94-0.76-10.96
				c-0.51-1.02-2.64-1.53-6.38-1.53c-3.74,0-6.04,0.25-6.89,0.77c-1.87,1.36-5.1,6.21-9.69,14.54v55.84l23.97,2.04v7.9l-32.39-1.02
				l-28.82,1.02v-7.9l19.89-2.04v-72.67l-21.93,1.27v-7.91c6.46-0.85,12.92-1.7,19.38-2.55c8.67-1.19,14.88-2.63,18.62-4.33
				l1.28,16.58c5.27-10.2,12.83-15.3,22.7-15.3C1164.63,173.32,1170.5,177.86,1170.5,186.96z"/>
				<path class="st8" d="M1247.18,242.76c0,18.14-11.99,27.21-35.97,27.21c-7.71,0-15.68-2.04-23.9-6.12
				c-0.17,1.8-0.43,3.83-0.77,6.12h-6.68v-31.88h8.42c0,8.74,2.29,14.88,6.89,18.41c3.74,3.03,9.86,4.54,18.36,4.54
				c12.24,0,18.36-4.22,18.36-12.68c0-5.24-2.21-9.38-6.63-12.42c-2.72-1.69-9.18-4.57-19.38-8.62
				c-9.52-3.72-16.24-7.73-20.15-12.04c-3.91-4.31-5.87-9.68-5.87-16.1c0-7.94,3.02-14.24,9.05-18.89
				c6.03-4.65,14.24-6.97,24.61-6.97c8.5,0,15.81,1.11,21.93,3.31l1.27-4.33h7.65c-1.06,5.44-2.48,14.71-4.26,27.79h-8.24
				c0.68-1.67,1.02-3.18,1.02-4.53c0-9.22-6.04-13.83-18.11-13.83c-10.37,0-16.07,0.93-17.09,2.8c-1.87,3.73-2.8,6.87-2.8,9.41
				c0,5.94,8.5,12.38,25.5,19.32c10.2,4.24,17.21,8.4,21.04,12.46C1245.27,229.79,1247.18,235.47,1247.18,242.76z"/>
				<path class="st8" d="M1314.82,268.18l-28.31-1.02l-28.31,1.02v-7.9l19.89-2.04v-72.42l-21.93,1.02v-7.91
				c6.8-0.85,13.6-1.7,20.4-2.55c11.05-1.53,17.34-2.89,18.87-4.08v85.94l19.38,2.04V268.18z M1296.45,136.34
				c0,3.06-1.24,5.91-3.7,8.54c-2.47,2.64-5.23,3.95-8.29,3.95c-2.89,0-5.53-1.31-7.91-3.95c-2.38-2.63-3.57-5.48-3.57-8.54
				c0-2.89,1.19-5.61,3.57-8.16c2.38-2.55,5.01-3.83,7.91-3.83c3.06,0,5.82,1.27,8.29,3.83
				C1295.22,130.73,1296.45,133.45,1296.45,136.34z"/>
				<path class="st8" d="M1426.59,265.02c-7.65,0.7-18.62,2.09-32.9,4.17c-0.51-3.8-1.19-8.73-2.04-14.79
				c-8.67,10.37-20.15,15.55-34.43,15.55c-11.9,0-21.59-5.17-29.07-15.52c-6.63-9.32-9.95-20.17-9.95-32.55
				c0-14.41,4.67-26.11,14.03-35.1c9.35-8.98,21.17-13.48,35.45-13.48c9.18,0,16.83,0.77,22.95,2.29V98.09l-21.93,1.02v-7.14
				c6.8-0.85,13.6-1.7,20.4-2.55c9.18-1.19,15.47-2.63,18.87-4.33v166.77c0,3.74,1.53,5.61,4.59,5.61h14.03V265.02z M1390.63,244.72
				v-44.37c0-6.8-1.75-11.39-5.23-13.77c-3.49-2.38-9.48-3.57-17.98-3.57c-9.69,0-15.47,0.85-17.34,2.55
				c-2.72,2.38-5.36,6.88-7.91,13.51c-2.89,7.31-4.33,14.37-4.33,21.17c0,11.56,2.8,20.83,8.42,27.8
				c4.93,6.29,10.71,9.43,17.34,9.43C1374.65,257.47,1383.66,253.22,1390.63,244.72z"/>
				<path class="st8" d="M1524.64,264.86c-5.78,1.53-14.45,3.14-26.01,4.85c-4.93,0.17-7.91-2.21-8.93-7.14
				c-0.34-1.7-0.51-4.33-0.51-7.9c-2.72,3.84-6.55,7.19-11.48,10.03c-5.78,3.34-11.73,5.02-17.85,5.02
				c-7.14,0-12.92-1.74-17.34-5.21c-4.42-3.47-6.63-7.67-6.63-12.59c0-6.61,0.93-11.87,2.81-15.76c1.02-2.03,9.18-5.17,24.48-9.41
				c7.14-2.03,15.56-3.73,25.25-5.09v-26.19c0-6.95-1.36-10.93-4.08-11.95c-0.85-0.34-5.1-0.51-12.75-0.51
				c-8.16,0-12.24,0.34-12.24,1.02c-1.02,4.93-1.36,9.52-1.02,13.77l-18.62,2.29c-0.85-4.71-0.64-8.33,0.64-10.86
				c1.28-2.53,5.23-5.55,11.86-9.09c7.99-4.55,15.9-6.82,23.72-6.82c9.01,0,16.23,1.99,21.68,5.98c5.44,3.98,8.16,9.28,8.16,15.89
				v56.44c0,4.24,1.87,6.35,5.61,6.35h13.26V264.86z M1488.43,246.5v-16.58c-8.84,1.36-14.96,2.55-18.36,3.57
				c-5.61,1.7-10.46,3.74-14.54,6.12c-0.34,3.06-0.51,5.61-0.51,7.65c0,8.5,3.32,12.75,9.95,12.75
				C1473.47,260.02,1481.29,255.51,1488.43,246.5z"/>
				<path class="st8" d="M1636.75,265.02c-7.65,0.7-18.62,2.09-32.9,4.17c-0.51-3.8-1.19-8.73-2.04-14.79
				c-8.67,10.37-20.15,15.55-34.43,15.55c-11.9,0-21.59-5.17-29.07-15.52c-6.63-9.32-9.95-20.17-9.95-32.55
				c0-14.41,4.67-26.11,14.03-35.1c9.35-8.98,21.17-13.48,35.45-13.48c9.18,0,16.83,0.77,22.95,2.29V98.09l-21.93,1.02v-7.14
				c6.8-0.85,13.6-1.7,20.4-2.55c9.18-1.19,15.47-2.63,18.87-4.33v166.77c0,3.74,1.53,5.61,4.59,5.61h14.03V265.02z M1600.79,244.72
				v-44.37c0-6.8-1.75-11.39-5.23-13.77c-3.49-2.38-9.48-3.57-17.98-3.57c-9.69,0-15.47,0.85-17.34,2.55
				c-2.72,2.38-5.36,6.88-7.91,13.51c-2.89,7.31-4.33,14.37-4.33,21.17c0,11.56,2.8,20.83,8.42,27.8
				c4.93,6.29,10.71,9.43,17.34,9.43C1584.81,257.47,1593.82,253.22,1600.79,244.72z"/>
				<path class="st8" d="M679.8,505.03c-7.65,0.7-18.62,2.09-32.9,4.17c-0.51-3.81-1.19-8.73-2.04-14.79
				c-8.67,10.37-20.15,15.55-34.43,15.55c-11.9,0-21.59-5.17-29.07-15.51c-6.63-9.32-9.95-20.17-9.95-32.55
				c0-14.41,4.67-26.11,14.03-35.1c9.35-8.98,21.17-13.48,35.45-13.48c9.18,0,16.83,0.76,22.95,2.29v-77.52l-21.93,1.02v-7.14
				c6.8-0.85,13.6-1.7,20.4-2.55c9.18-1.19,15.47-2.63,18.87-4.33v166.77c0,3.74,1.53,5.61,4.59,5.61h14.03V505.03z M643.84,484.72
				v-44.37c0-6.8-1.75-11.39-5.23-13.77c-3.49-2.38-9.48-3.57-17.98-3.57c-9.69,0-15.47,0.85-17.34,2.55
				c-2.72,2.38-5.36,6.89-7.91,13.52c-2.89,7.31-4.33,14.37-4.33,21.17c0,11.56,2.8,20.83,8.42,27.79
				c4.93,6.29,10.71,9.43,17.34,9.43C627.86,497.47,636.87,493.22,643.84,484.72z"/>
				<path class="st8" d="M765.23,496.19c-10.2,9.18-22.27,13.77-36.21,13.77c-12.58,0-22.95-4.07-31.11-12.21
				c-9.01-8.65-13.52-20.34-13.52-35.1c0-14.92,4.5-27.04,13.52-36.37c8.33-8.65,18.53-12.97,30.6-12.97
				c23.12,0,34.68,10.46,34.68,31.36c0,3.23-0.09,5.78-0.25,7.65h-58.4c-0.34,1.35-0.51,4.48-0.51,9.38
				c0,9.81,2.72,18.17,8.16,25.11c5.61,7.61,12.92,11.41,21.93,11.41c9.35,0,18.11-2.89,26.27-8.67L765.23,496.19z M745.34,440.91
				c0.34-1.99,0.51-3.73,0.51-5.22c0-8.96-5.7-13.44-17.09-13.44c-6.97,0-11.31,0.58-13.01,1.74c-0.85,0.67-2.42,3.2-4.72,7.59
				c-2.29,4.4-3.87,8.09-4.72,11.08c4.93,0.17,8.16,0.25,9.69,0.25C731.99,442.9,741.77,442.24,745.34,440.91z"/>
				<path class="st8" d="M959.81,508.18l-19.13-1.02l-33.15,1.02v-8.42l18.36-2.04l-16.07-46.67h-44.12l-16.83,46.41l18.36,2.29v8.42
				l-25.76-1.02l-17.85,1.02v-8.42l13.52-2.29l49.47-136.68c2.55-2.04,4.93-5.69,7.14-10.96h2.55l51,147.64l12.5,2.29V508.18z
				 M906,440.09l-13.01-38c-1.7-5.1-3.23-10.28-4.59-15.55c-0.34,1.7-1.96,6.97-4.84,15.81l-13.77,37.74H906z"/>
				<path class="st8" d="M1025.12,508.18l-28.31-1.02l-28.31,1.02v-7.9l19.64-2.04V338.86l-21.93,0.76v-7.65
				c6.63-0.85,13.35-1.7,20.15-2.55c10.03-1.53,16.41-2.97,19.13-4.33v173.15l19.64,2.04V508.18z"/>
				<path class="st8" d="M1107.06,495.43c-9.35,9.69-21.08,14.54-35.19,14.54c-12.75,0-23.12-4.24-31.11-12.72
				c-8.5-8.99-12.75-21.11-12.75-36.37c0-14.41,5.01-26.11,15.05-35.1c9.01-8.31,19.64-12.46,31.88-12.46
				c19.89,0,29.84,4.55,29.84,13.63c0,3.03-0.68,6.31-2.04,9.84l-15.3,1.26c0.34-3.06,0-8.07-1.02-15.04
				c-3.23-0.51-6.8-0.76-10.71-0.76c-8.16,0-13.3,0.68-15.43,2.04c-2.13,1.36-4.63,5.61-7.52,12.75c-3.4,8.33-5.1,16.06-5.1,23.21
				c0,11.9,3.14,21.42,9.44,28.56c5.61,6.29,12.24,9.44,19.89,9.44c10.2,0,18.45-3.06,24.74-9.18L1107.06,495.43z"/>
				<path class="st8" d="M1206.26,504.86c-5.78,1.53-14.45,3.14-26.01,4.84c-4.93,0.17-7.91-2.21-8.93-7.14
				c-0.34-1.7-0.51-4.33-0.51-7.91c-2.72,3.84-6.55,7.19-11.48,10.03c-5.78,3.34-11.73,5.02-17.85,5.02
				c-7.14,0-12.92-1.74-17.34-5.21c-4.42-3.47-6.63-7.67-6.63-12.59c0-6.61,0.93-11.87,2.81-15.76c1.02-2.03,9.18-5.17,24.48-9.41
				c7.14-2.03,15.56-3.73,25.25-5.09v-26.19c0-6.95-1.36-10.93-4.08-11.95c-0.85-0.34-5.1-0.51-12.75-0.51
				c-8.16,0-12.24,0.34-12.24,1.02c-1.02,4.93-1.36,9.52-1.02,13.77l-18.62,2.29c-0.85-4.71-0.64-8.33,0.64-10.86
				c1.28-2.53,5.23-5.55,11.86-9.09c7.99-4.55,15.9-6.82,23.72-6.82c9.01,0,16.23,1.99,21.68,5.98c5.44,3.98,8.16,9.28,8.16,15.89
				v56.44c0,4.24,1.87,6.35,5.61,6.35h13.26V504.86z M1170.05,486.5v-16.58c-8.84,1.36-14.96,2.55-18.36,3.57
				c-5.61,1.7-10.46,3.74-14.54,6.12c-0.34,3.06-0.51,5.61-0.51,7.65c0,8.5,3.32,12.75,9.95,12.75
				C1155.08,500.02,1162.91,495.51,1170.05,486.5z"/>
				<path class="st8" d="M1269.91,508.18l-28.31-1.02l-28.31,1.02v-7.9l19.64-2.04V338.86l-21.93,0.76v-7.65
				c6.63-0.85,13.35-1.7,20.15-2.55c10.03-1.53,16.41-2.97,19.13-4.33v173.15l19.64,2.04V508.18z"/>
				<path class="st8" d="M1366.97,504.86c-5.78,1.53-14.45,3.14-26.01,4.84c-4.93,0.17-7.91-2.21-8.93-7.14
				c-0.34-1.7-0.51-4.33-0.51-7.91c-2.72,3.84-6.55,7.19-11.48,10.03c-5.78,3.34-11.73,5.02-17.85,5.02
				c-7.14,0-12.92-1.74-17.34-5.21c-4.42-3.47-6.63-7.67-6.63-12.59c0-6.61,0.93-11.87,2.81-15.76c1.02-2.03,9.18-5.17,24.48-9.41
				c7.14-2.03,15.56-3.73,25.25-5.09v-26.19c0-6.95-1.36-10.93-4.08-11.95c-0.85-0.34-5.1-0.51-12.75-0.51
				c-8.16,0-12.24,0.34-12.24,1.02c-1.02,4.93-1.36,9.52-1.02,13.77l-18.62,2.29c-0.85-4.71-0.64-8.33,0.64-10.86
				c1.28-2.53,5.23-5.55,11.86-9.09c7.99-4.55,15.9-6.82,23.72-6.82c9.01,0,16.23,1.99,21.68,5.98c5.44,3.98,8.16,9.28,8.16,15.89
				v56.44c0,4.24,1.87,6.35,5.61,6.35h13.26V504.86z M1330.76,486.5v-16.58c-8.84,1.36-14.96,2.55-18.36,3.57
				c-5.61,1.7-10.46,3.74-14.54,6.12c-0.34,3.06-0.51,5.61-0.51,7.65c0,8.5,3.32,12.75,9.95,12.75
				C1315.8,500.02,1323.62,495.51,1330.76,486.5z M1349.63,354.41l-31.11,46.16c-1.87,0.85-3.83,1.27-5.87,1.27
				c-2.72,0-3.74-0.76-3.06-2.29l20.91-45.13c2.72-2.38,6.46-3.57,11.22-3.57C1347.5,350.84,1350.14,352.03,1349.63,354.41z"/>
			</g>
		</g>
	</g>
</svg>